<?xml version="1.0" encoding="UTF-8"?>
<svg version="1.1" xmlns="http://www.w3.org/2000/svg" width="198" height="250">
<path d="M0 0 C0.7381041 -0.00287018 1.47620819 -0.00574036 2.23667908 -0.00869751 C3.79068778 -0.01073154 5.34472247 -0.00524801 6.89868164 0.00732422 C9.27353179 0.02341168 11.64668625 0.00744275 14.02148438 -0.01171875 C15.53515999 -0.00973665 17.04883456 -0.00589365 18.5625 0 C19.26987808 -0.00607269 19.97725616 -0.01214539 20.70606995 -0.0184021 C23.80575245 0.02572501 25.93793975 0.24449485 28.66967773 1.76318359 C30.21484375 3.3984375 30.21484375 3.3984375 30.58984375 5.9609375 C30.21484375 8.3984375 30.21484375 8.3984375 28.21484375 10.3984375 C16.99484375 10.3984375 5.77484375 10.3984375 -5.78515625 10.3984375 C-5.78515625 39.7684375 -5.78515625 69.1384375 -5.78515625 99.3984375 C39.75484375 99.3984375 85.29484375 99.3984375 132.21484375 99.3984375 C132.21484375 70.0284375 132.21484375 40.6584375 132.21484375 10.3984375 C120.99484375 10.3984375 109.77484375 10.3984375 98.21484375 10.3984375 C96.21484375 8.3984375 96.21484375 8.3984375 95.83984375 5.9609375 C96.21484375 3.3984375 96.21484375 3.3984375 97.76000977 1.76318359 C101.09738775 -0.09220605 104.14733476 -0.03193416 107.8671875 0 C108.60433487 -0.00287018 109.34148224 -0.00574036 110.10096741 -0.00869751 C111.65675629 -0.01073476 113.21257098 -0.00522856 114.76831055 0.00732422 C117.14104971 0.02336117 119.51207977 0.00747734 121.88476562 -0.01171875 C123.39974332 -0.00973581 124.91471996 -0.00589108 126.4296875 0 C127.13504135 -0.00607269 127.8403952 -0.01214539 128.56712341 -0.0184021 C133.87420763 0.05679277 136.83083978 1.39813664 140.82775116 4.75174904 C142.54348024 6.78857866 142.5953368 7.77295797 142.60925293 10.40805054 C142.62060272 11.22112167 142.63195251 12.03419281 142.64364624 12.87190247 C142.64071564 13.76028305 142.63778503 14.64866364 142.63476562 15.56396484 C142.64323517 16.5024678 142.65170471 17.44097076 142.66043091 18.40791321 C142.68387008 21.51687088 142.68482133 24.62533557 142.68359375 27.734375 C142.69069175 29.89287516 142.69839021 32.05137342 142.70666504 34.20986938 C142.7201262 38.73762249 142.72167152 43.2652012 142.71582031 47.79296875 C142.70992638 53.59615507 142.74049606 59.39850416 142.78093719 65.20152855 C142.80678525 69.66080232 142.80969414 74.11987383 142.80604553 78.57921219 C142.80773986 80.71865567 142.81741228 82.85810819 142.83518982 84.99747849 C142.85731913 87.99026234 142.84770745 90.98134318 142.83007812 93.97412109 C142.84334137 94.85845322 142.85660461 95.74278534 142.87026978 96.65391541 C142.80946979 101.09485462 142.66074608 102.83926659 139.8013916 106.42495728 C135.82925171 109.45561434 133.81337791 109.5212812 128.83740234 109.51196289 C127.85673042 109.51218193 127.85673042 109.51218193 126.85624695 109.5124054 C124.69189148 109.51170786 122.52762171 109.5039229 120.36328125 109.49609375 C118.86398363 109.49422901 117.36468541 109.49280537 115.86538696 109.49180603 C111.91652753 109.48798529 107.96770479 109.47815878 104.01885986 109.46710205 C99.99044288 109.45687841 95.96201997 109.45230637 91.93359375 109.44726562 C84.02732502 109.43653612 76.12109318 109.4189429 68.21484375 109.3984375 C68.21484375 115.0084375 68.21484375 120.6184375 68.21484375 126.3984375 C71.30279297 126.34623047 71.30279297 126.34623047 74.453125 126.29296875 C76.4488008 126.27210803 78.44447931 126.25135385 80.44018555 126.23364258 C81.82632294 126.21856353 83.21241269 126.198097 84.59838867 126.17211914 C86.59142521 126.13570034 88.58481098 126.12030732 90.578125 126.10546875 C91.77735596 126.0897583 92.97658691 126.07404785 94.2121582 126.05786133 C97.21484375 126.3984375 97.21484375 126.3984375 99.14135742 127.7565918 C100.21484375 129.3984375 100.21484375 129.3984375 100.02734375 131.9609375 C99.21484375 134.3984375 99.21484375 134.3984375 97.21484375 136.3984375 C94.41297913 136.65913391 94.41297913 136.65913391 90.79321289 136.6730957 C90.13449692 136.67820663 89.47578094 136.68331757 88.79710388 136.68858337 C86.61464408 136.70250945 84.43249901 136.70152036 82.25 136.69921875 C80.73546735 136.70310417 79.22093578 136.70743851 77.70640564 136.71220398 C74.52957632 136.71967275 71.35285811 136.7193703 68.17602539 136.71411133 C64.10247717 136.7083171 60.0293837 136.72524297 55.95591068 136.748456 C52.82723831 136.76317989 49.69867578 136.76406688 46.5699749 136.76094627 C45.06804949 136.76146021 43.56611805 136.76671154 42.06422615 136.77675819 C39.96447239 136.78907923 37.86560839 136.78235803 35.76586914 136.77075195 C34.57055069 136.77138138 33.37523224 136.7720108 32.14369202 136.7726593 C29.21484375 136.3984375 29.21484375 136.3984375 27.29368591 135.0353241 C26.21484375 133.3984375 26.21484375 133.3984375 26.40234375 130.8359375 C27.21484375 128.3984375 27.21484375 128.3984375 29.21484375 126.3984375 C32.10400391 126.17138672 32.10400391 126.17138672 35.75390625 126.203125 C37.70683594 126.21279297 37.70683594 126.21279297 39.69921875 126.22265625 C41.0794297 126.23936821 42.45963804 126.25629811 43.83984375 126.2734375 C45.22785827 126.28346744 46.61587964 126.29259327 48.00390625 126.30078125 C51.40762567 126.32441819 54.81125603 126.36029019 58.21484375 126.3984375 C58.21484375 120.7884375 58.21484375 115.1784375 58.21484375 109.3984375 C56.21663574 109.42462158 54.21842773 109.45080566 52.15966797 109.4777832 C45.54610456 109.56075613 38.93251772 109.61591029 32.31857109 109.65749836 C28.30975614 109.68355528 24.30147595 109.71888022 20.29296875 109.77563477 C16.42202653 109.83009651 12.55159755 109.85988741 8.68030167 109.87282372 C7.20590259 109.88203844 5.73153056 109.9000333 4.25735092 109.92708778 C-8.74932052 110.15622288 -8.74932052 110.15622288 -12.67529297 106.99291992 C-16.25237511 102.59420991 -15.93920054 99.10010416 -15.94628906 93.62182617 C-15.95125397 92.71272995 -15.95621887 91.80363373 -15.96133423 90.86698914 C-15.97597645 87.85012056 -15.98276154 84.83330457 -15.98828125 81.81640625 C-15.99403134 79.7237396 -15.99978909 77.63107298 -16.0055542 75.53840637 C-16.01607028 71.14596307 -16.02190886 66.75353811 -16.02539062 62.36108398 C-16.03087434 56.73185147 -16.05489728 51.10286096 -16.08336258 45.47370434 C-16.10198451 41.14914746 -16.10719434 36.8246489 -16.1087265 32.50005531 C-16.11175494 30.42481476 -16.11978987 28.34957528 -16.13291168 26.27437401 C-16.1499615 23.3704729 -16.14809437 20.46716325 -16.14160156 17.56323242 C-16.15081635 16.70538147 -16.16003113 15.84753052 -16.16952515 14.96368408 C-16.1366582 10.27241773 -15.81115202 7.21807147 -12.78515625 3.3984375 C-8.76720096 0.13504663 -4.99272459 -0.0429845 0 0 Z " fill="#5B5B5A" transform="translate(37.78515625,91.6015625)"/>
<path d="M0 0 C3.89195522 1.98135902 6.94325506 4.10300958 9 8 C10.38242317 14.02341524 10.18456076 17.48009468 7 23 C2.79487179 27 2.79487179 27 0 27 C0.00184359 27.61660429 0.00368717 28.23320858 0.00558662 28.86849785 C0.04971458 43.85717147 0.08283164 58.84582524 0.10362434 73.83454704 C0.11394625 81.08291834 0.12802399 88.33124634 0.15087891 95.57958984 C0.17078487 101.89568298 0.18370978 108.21174476 0.18817699 114.52786839 C0.19078913 117.87362811 0.19694761 121.21929812 0.21146011 124.56502914 C0.22589039 128.29584923 0.22798149 132.02648091 0.22705078 135.75732422 C0.23783661 137.42967133 0.23783661 137.42967133 0.24884033 139.13580322 C0.246091 140.14825104 0.24334167 141.16069885 0.24050903 142.2038269 C0.24235262 143.08690458 0.24419621 143.96998226 0.24609566 144.87981987 C0 147 0 147 -2 149 C-5 149.3125 -5 149.3125 -8 149 C-10.16755336 145.74866996 -10.24841775 144.87422128 -10.24050903 141.12153625 C-10.24325836 140.11612793 -10.24600769 139.1107196 -10.24884033 138.07484436 C-10.24164978 136.9728923 -10.23445923 135.87094025 -10.22705078 134.7355957 C-10.22734283 133.57448273 -10.22763489 132.41336975 -10.22793579 131.21707153 C-10.22653976 127.36989939 -10.21096546 123.52291966 -10.1953125 119.67578125 C-10.19158334 117.01205619 -10.18863756 114.34834186 -10.18673706 111.68461609 C-10.18051883 105.38418212 -10.1641034 99.08381749 -10.14403808 92.78341407 C-10.12168973 85.61057659 -10.11068833 78.43773581 -10.10064721 71.26487219 C-10.07973746 56.50987932 -10.04455482 41.75494087 -10 27 C-10.77730469 26.7215625 -11.55460937 26.443125 -12.35546875 26.15625 C-16.16549217 24.49041997 -17.20035108 22.73260517 -19 19 C-19.81080489 13.95499178 -19.5746587 10.17060106 -17.3125 5.5625 C-12.20175079 -0.10076263 -7.44476849 -1.0856954 0 0 Z M-7 10 C-7.66 10.66 -8.32 11.32 -9 12 C-8.71016731 15.30683466 -8.71016731 15.30683466 -7 18 C-4.5 18.16666667 -4.5 18.16666667 -2 18 C-0.72996677 16.94689723 -0.72996677 16.94689723 -0.8125 14.5625 C-0.73160017 11.83265325 -0.73160017 11.83265325 -3 10 C-4.32 10 -5.64 10 -7 10 Z " fill="#5B5B5A" transform="translate(106,21)"/>
<path d="M0 0 C4.28299022 3.38130807 7.40359219 6.36416924 8.375 11.8125 C8.65402053 16.10449226 7.53256047 19.13522851 5.375 22.875 C0.75160597 27.1600969 -2.16153167 28.17276165 -8.3046875 28.09375 C-12.6677741 27.68241524 -15.58892237 26.01468539 -18.5 22.8125 C-19.625 20.875 -19.625 20.875 -19.625 18.875 C-24.575 19.205 -29.525 19.535 -34.625 19.875 C-34.63958252 22.25243408 -34.65416504 24.62986816 -34.66918945 27.0793457 C-34.71948307 34.92653766 -34.78606866 42.77353009 -34.86071491 50.62052631 C-34.90547936 55.37908047 -34.94472194 60.1375478 -34.97143555 64.89624023 C-34.99740812 69.48700296 -35.0377672 74.07743266 -35.08818626 78.66798973 C-35.10489603 80.42106172 -35.11638465 82.17419137 -35.12261391 83.92733192 C-35.13221059 86.37940164 -35.1602152 88.83061142 -35.19262695 91.2824707 C-35.19119186 92.01039322 -35.18975677 92.73831573 -35.1882782 93.48829651 C-35.24275465 96.39431994 -35.31606219 98.41331186 -36.95671082 100.86515808 C-38.625 101.875 -38.625 101.875 -41.75 101.625 C-44.625 100.875 -44.625 100.875 -45.625 99.875 C-45.73599266 97.37629031 -45.7823869 94.90495874 -45.78613281 92.40527344 C-45.79109772 91.62311966 -45.79606262 90.84096588 -45.80117798 90.03511047 C-45.81584074 87.43485651 -45.82260945 84.8346636 -45.828125 82.234375 C-45.8338744 80.43174232 -45.83963215 78.62910967 -45.84539795 76.82647705 C-45.85592055 73.04007684 -45.86175452 69.25369794 -45.86523438 65.46728516 C-45.87071263 60.61710362 -45.89472096 55.76720375 -45.92320633 50.91711044 C-45.94184099 47.19046206 -45.94703882 43.46388128 -45.94857025 39.73719025 C-45.95159696 37.94942947 -45.95962611 36.1616699 -45.97275543 34.37395477 C-45.98982849 31.86985478 -45.98793242 29.36643942 -45.98144531 26.86230469 C-45.9906601 26.12444229 -45.99987488 25.3865799 -46.0093689 24.62635803 C-45.96658935 19.34935054 -44.78813987 16.10573799 -41.125 12.328125 C-36.02139507 8.23460855 -32.89297121 7.75327549 -26.4375 7.8125 C-25.16519531 7.82152344 -23.89289063 7.83054687 -22.58203125 7.83984375 C-21.11830078 7.85724609 -21.11830078 7.85724609 -19.625 7.875 C-19.34527344 7.26011719 -19.06554687 6.64523438 -18.77734375 6.01171875 C-15.03717927 -0.9234337 -7.05797267 -3.02484543 0 0 Z M-7.625 8.875 C-8.615 9.535 -9.605 10.195 -10.625 10.875 C-11.04166667 13.375 -11.04166667 13.375 -10.625 15.875 C-9.965 16.535 -9.305 17.195 -8.625 17.875 C-5.31816534 17.58516731 -5.31816534 17.58516731 -2.625 15.875 C-2.58436168 14.20882885 -2.582279 12.54111905 -2.625 10.875 C-4.95354463 9.67661791 -4.95354463 9.67661791 -7.625 8.875 Z " fill="#5B5B5A" transform="translate(162.625,47.125)"/>
<path d="M0 0 C3.42440103 1.87372887 6.51187247 3.95895525 9 7 C9 7.66 9 8.32 9 9 C10.41152344 8.94779297 10.41152344 8.94779297 11.8515625 8.89453125 C13.71941406 8.85392578 13.71941406 8.85392578 15.625 8.8125 C16.85476562 8.77769531 18.08453125 8.74289063 19.3515625 8.70703125 C25.85106183 9.22893965 29.78332711 12.18094527 34 17 C35.20191109 20.60573328 35.14758056 23.89938388 35.14526367 27.65258789 C35.14862228 28.43009903 35.1519809 29.20761017 35.15544128 30.00868225 C35.16494459 32.58002313 35.16689384 35.1512989 35.16796875 37.72265625 C35.17118089 39.50719734 35.17454493 41.29173816 35.17805481 43.07627869 C35.1840439 46.81623953 35.18589485 50.55617727 35.18530273 54.29614258 C35.18520092 59.09717563 35.19887346 63.8980614 35.21607494 68.69905949 C35.22717001 72.38354682 35.22922274 76.0679982 35.22869301 79.75250053 C35.22987612 81.52319282 35.23431629 83.29388595 35.24202538 85.06456184 C35.25177855 87.53541662 35.24896632 90.0059471 35.24291992 92.47680664 C35.24853943 93.21296204 35.25415894 93.94911743 35.25994873 94.70758057 C35.22831827 99.77168173 35.22831827 99.77168173 33 102 C30 102.3125 30 102.3125 27 102 C24.58365257 98.37547885 24.69375181 95.69039553 24.68115234 91.49926758 C24.67110672 90.73805099 24.6610611 89.97683441 24.65071106 89.19255066 C24.61982116 86.67655187 24.60282796 84.16065976 24.5859375 81.64453125 C24.5672305 79.9000303 24.54765744 78.15553843 24.5272522 76.41105652 C24.47587543 71.81948196 24.43627943 67.22787805 24.39910889 62.63616943 C24.35910396 57.95073146 24.30799562 53.26541618 24.2578125 48.58007812 C24.16098759 39.38680487 24.07660384 30.19346242 24 21 C21.56579242 20.92236639 19.13406284 20.86536334 16.69921875 20.8203125 C16.01049683 20.79622314 15.3217749 20.77213379 14.61218262 20.74731445 C10.61683044 20.67774412 10.61683044 20.67774412 7.03833008 22.25341797 C5.61939615 24.06223423 5.61939615 24.06223423 4 27 C0.46419926 29.6823316 -3.7305536 29.54648914 -8 29 C-10.6875 27.8125 -10.6875 27.8125 -13 26 C-13.9075 25.29875 -14.815 24.5975 -15.75 23.875 C-18.77348067 20.01166359 -19.14123724 16.82854806 -19 12 C-18.00357304 7.23929341 -14.7143087 3.98656883 -11 1 C-7.27652266 -0.24115911 -3.86785828 -0.5420862 0 0 Z M-8 12 C-8.2500773 14.45809998 -8.2500773 14.45809998 -8 17 C-7.34 17.66 -6.68 18.32 -6 19 C-2.69316534 18.71016731 -2.69316534 18.71016731 0 17 C0.16666667 14.5 0.16666667 14.5 0 12 C-1.11836224 10.65595225 -1.11836224 10.65595225 -4 10.875 C-6.88163776 10.65595225 -6.88163776 10.65595225 -8 12 Z " fill="#5C5C5A" transform="translate(50,46)"/>
</svg>
